<svg xmlns="http://www.w3.org/2000/svg" viewBox="0 0 104.62 35.05"><defs><style>.cls-1{isolation:isolate;}.cls-2{fill:#231f20;}.cls-3{mix-blend-mode:multiply;}.cls-4{fill:#f39420;}</style></defs><title>Asset 1</title><g class="cls-1"><g id="Layer_2" data-name="Layer 2"><g id="Layer_1-2" data-name="Layer 1"><polygon class="cls-2" points="46.76 14.44 42.45 14.44 42.45 9.9 42.03 9.9 42.03 14.44 37.7 14.44 37.7 14.84 42.03 14.84 42.03 19.38 42.45 19.38 42.45 14.84 46.76 14.84 46.76 14.44"/><g class="cls-3"><path class="cls-4" d="M63.94,6.11a8.51,8.51,0,0,0-3.09,1.52,7.6,7.6,0,0,0-2.17,2.93,11.65,11.65,0,0,0-.8,4.59v9h4.37V14.57a4.67,4.67,0,0,1,1.11-3.4,4.51,4.51,0,0,1,3.33-1.11H68V5.62h-.38A13.79,13.79,0,0,0,63.94,6.11Z"/><path class="cls-4" d="M71.09,24.1h2.26a2.06,2.06,0,0,0,1.49-.62,2,2,0,0,0,.62-1.5V5.62H71.09Z"/><path class="cls-4" d="M0,24.1H2.26a2.06,2.06,0,0,0,1.49-.62A2,2,0,0,0,4.37,22V5.62H0Z"/><path class="cls-4" d="M91.9,6.77a8.87,8.87,0,0,0-5.61-1.59,9.13,9.13,0,0,0-5.47,1.73C79.19,8.2,78.4,10.25,78.4,13.2V24.1h4.37V12.19a3.32,3.32,0,0,1,1.14-2.78,4,4,0,0,1,2.5-.86A4.15,4.15,0,0,1,89,9.41a3.3,3.3,0,0,1,1.17,2.78V22a2,2,0,0,0,2.11,2.12h2.19V13.2C94.43,10.2,93.6,8.09,91.9,6.77Z"/><path class="cls-4" d="M101.66,5.69V0h-4.3V20.83c0,2,.81,3.07,2.49,3.2l.14,0,.22,0,0,0,1.43,0V8.92h.84a2.07,2.07,0,0,0,1.5-.59,3.17,3.17,0,0,0,.62-2V5.69Z"/><path class="cls-4" d="M33.23,6.88a8.64,8.64,0,0,0-5.58-1.69h-.17l-.29,0a8.13,8.13,0,0,0-5.14,1.69l-.22.19-.22-.19a4.68,4.68,0,0,0-.47-.35,6.4,6.4,0,0,0-2.25-1l-.35-.06A10.43,10.43,0,0,0,16,5.19h-.27l-.3,0a8.33,8.33,0,0,0-5.7,2.12,4.84,4.84,0,0,0-1,1.36,7,7,0,0,0-.78,2.55H8l0,.57c0,.45-.07.91-.07,1.4V24.1h4.38V12.19a3.34,3.34,0,0,1,1.13-2.78,4,4,0,0,1,2.51-.86,4.12,4.12,0,0,1,2.54.86,3.28,3.28,0,0,1,1.18,2.78V24.1h4.3V12.19a3.28,3.28,0,0,1,1.17-2.78,4.18,4.18,0,0,1,5.08,0,3.28,3.28,0,0,1,1.18,2.78V22a2,2,0,0,0,2.12,2.12h2.18V13.2C35.62,10.09,34.83,8,33.23,6.88Z"/><path class="cls-4" d="M49.05,4.7v0l-.37,0a15.08,15.08,0,0,0-1.7-.1H37.53V7a2.19,2.19,0,0,0,.65,1.66,2.22,2.22,0,0,0,1.66.64h7.7l1.3.28A4.1,4.1,0,0,1,51.2,12c.07.22.18.78.19.84a9.55,9.55,0,0,1,0,3.56,4.18,4.18,0,0,1-2.6,3.32l-1,.23h-8a2.19,2.19,0,0,0-2.31,2.29V35.05H40a2.32,2.32,0,0,0,2.31-2.3v-8.1H47a15.08,15.08,0,0,0,1.7-.1h.37v0a7.62,7.62,0,0,0,7-6.44,19.86,19.86,0,0,0,.06-6.93C55.68,7.67,52,4.89,49.05,4.7Z"/></g></g></g></g></svg>